<svg id="visual" viewBox="0 0 960 540" width="960" height="540" xmlns="http://www.w3.org/2000/svg" xmlns:xlink="http://www.w3.org/1999/xlink" version="1.1"><path d="M0 77L22.8 67C45.7 57 91.3 37 137 46C182.7 55 228.3 93 274 99.3C319.7 105.7 365.3 80.3 411.2 62.3C457 44.3 503 33.7 548.8 31.8C594.7 30 640.3 37 686 51.3C731.7 65.7 777.3 87.3 823 84.7C868.7 82 914.3 55 937.2 41.5L960 28L960 0L937.2 0C914.3 0 868.7 0 823 0C777.3 0 731.7 0 686 0C640.3 0 594.7 0 548.8 0C503 0 457 0 411.2 0C365.3 0 319.7 0 274 0C228.3 0 182.7 0 137 0C91.3 0 45.7 0 22.8 0L0 0Z" fill="#c6c7cd"></path><path d="M0 293L22.8 265C45.7 237 91.3 181 137 156.7C182.7 132.3 228.3 139.7 274 135.2C319.7 130.7 365.3 114.3 411.2 130.5C457 146.7 503 195.3 548.8 190C594.7 184.7 640.3 125.3 686 109.2C731.7 93 777.3 120 823 164C868.7 208 914.3 269 937.2 299.5L960 330L960 26L937.2 39.5C914.3 53 868.7 80 823 82.7C777.3 85.3 731.7 63.7 686 49.3C640.3 35 594.7 28 548.8 29.8C503 31.7 457 42.3 411.2 60.3C365.3 78.3 319.7 103.7 274 97.3C228.3 91 182.7 53 137 44C91.3 35 45.7 55 22.8 65L0 75Z" fill="#b1b7d7"></path><path d="M0 309L22.8 291C45.7 273 91.3 237 137 219C182.7 201 228.3 201 274 194.7C319.7 188.3 365.3 175.7 411.2 188.2C457 200.7 503 238.3 548.8 230.2C594.7 222 640.3 168 686 153.7C731.7 139.3 777.3 164.7 823 208.8C868.7 253 914.3 316 937.2 347.5L960 379L960 328L937.2 297.5C914.3 267 868.7 206 823 162C777.3 118 731.7 91 686 107.2C640.3 123.3 594.7 182.7 548.8 188C503 193.3 457 144.7 411.2 128.5C365.3 112.3 319.7 128.7 274 133.2C228.3 137.7 182.7 130.3 137 154.7C91.3 179 45.7 235 22.8 263L0 291Z" fill="#9ca7e1"></path><path d="M0 363L22.8 347.7C45.7 332.3 91.3 301.7 137 275.5C182.7 249.3 228.3 227.7 274 219.5C319.7 211.3 365.3 216.7 411.2 229.3C457 242 503 262 548.8 253C594.7 244 640.3 206 686 196C731.7 186 777.3 204 823 244.5C868.7 285 914.3 348 937.2 379.5L960 411L960 377L937.2 345.5C914.3 314 868.7 251 823 206.8C777.3 162.7 731.7 137.3 686 151.7C640.3 166 594.7 220 548.8 228.2C503 236.3 457 198.7 411.2 186.2C365.3 173.7 319.7 186.3 274 192.7C228.3 199 182.7 199 137 217C91.3 235 45.7 271 22.8 289L0 307Z" fill="#8597ea"></path><path d="M0 455L22.8 451.3C45.7 447.7 91.3 440.3 137 432.2C182.7 424 228.3 415 274 409.7C319.7 404.3 365.3 402.7 411.2 403.5C457 404.3 503 407.7 548.8 408.5C594.7 409.3 640.3 407.7 686 417.7C731.7 427.7 777.3 449.3 823 459.2C868.7 469 914.3 467 937.2 466L960 465L960 409L937.2 377.5C914.3 346 868.7 283 823 242.5C777.3 202 731.7 184 686 194C640.3 204 594.7 242 548.8 251C503 260 457 240 411.2 227.3C365.3 214.7 319.7 209.3 274 217.5C228.3 225.7 182.7 247.3 137 273.5C91.3 299.7 45.7 330.3 22.8 345.7L0 361Z" fill="#6b87f2"></path><path d="M0 492L22.8 492C45.7 492 91.3 492 137 488.5C182.7 485 228.3 478 274 473.5C319.7 469 365.3 467 411.2 467.8C457 468.7 503 472.3 548.8 476C594.7 479.7 640.3 483.3 686 490.5C731.7 497.7 777.3 508.3 823 511C868.7 513.7 914.3 508.3 937.2 505.7L960 503L960 463L937.2 464C914.3 465 868.7 467 823 457.2C777.3 447.3 731.7 425.7 686 415.7C640.3 405.7 594.7 407.3 548.8 406.5C503 405.7 457 402.3 411.2 401.5C365.3 400.7 319.7 402.3 274 407.7C228.3 413 182.7 422 137 430.2C91.3 438.3 45.7 445.7 22.8 449.3L0 453Z" fill="#4b76f9"></path><path d="M0 541L22.8 541C45.7 541 91.3 541 137 541C182.7 541 228.3 541 274 541C319.7 541 365.3 541 411.2 541C457 541 503 541 548.8 541C594.7 541 640.3 541 686 541C731.7 541 777.3 541 823 541C868.7 541 914.3 541 937.2 541L960 541L960 501L937.2 503.7C914.3 506.3 868.7 511.7 823 509C777.3 506.3 731.7 495.7 686 488.5C640.3 481.3 594.7 477.7 548.8 474C503 470.3 457 466.7 411.2 465.8C365.3 465 319.7 467 274 471.5C228.3 476 182.7 483 137 486.5C91.3 490 45.7 490 22.8 490L0 490Z" fill="#0066ff"></path></svg>